<svg xmlns="http://www.w3.org/2000/svg" viewBox="0 0 100 100" width="100" height="100">
  <defs>
    <radialGradient id="face" cx="34%" cy="26%" r="88%">
      <stop offset="0" stop-color="#FFE79A"/>
      <stop offset="48%" stop-color="#FFCB3D"/>
      <stop offset="100%" stop-color="#E8A017"/>
    </radialGradient>
    <radialGradient id="gloss" cx="50%" cy="50%" r="50%">
      <stop offset="0" stop-color="#FFFFFF" stop-opacity=".9"/>
      <stop offset="100%" stop-color="#FFFFFF" stop-opacity="0"/>
    </radialGradient>
    <radialGradient id="blush" cx="50%" cy="50%" r="50%">
      <stop offset="0" stop-color="#FF7A7A" stop-opacity=".55"/>
      <stop offset="100%" stop-color="#FF7A7A" stop-opacity="0"/>
    </radialGradient>
  </defs>

  <circle cx="50" cy="51" r="46" fill="url(#face)" stroke="#B87A12" stroke-width="3.5"/>
  <circle cx="50" cy="51" r="46" fill="none" stroke="#FFFFFF" stroke-opacity=".45" stroke-width="1.5"/>

  <ellipse cx="31" cy="72" rx="13" ry="9" fill="url(#blush)"/>
  <ellipse cx="69" cy="72" rx="13" ry="9" fill="url(#blush)"/>

  <ellipse cx="35" cy="41" rx="8.5" ry="11" fill="#2A1F0E"/>
  <ellipse cx="65" cy="41" rx="8.5" ry="11" fill="#2A1F0E"/>
  <circle cx="32.4" cy="37" r="3.1" fill="#FFFFFF" opacity=".92"/>
  <circle cx="62.4" cy="37" r="3.1" fill="#FFFFFF" opacity=".92"/>
  <circle cx="37" cy="45.5" r="1.4" fill="#FFFFFF" opacity=".5"/>
  <circle cx="67" cy="45.5" r="1.4" fill="#FFFFFF" opacity=".5"/>

  <path d="M29 61 Q50 84 71 61" fill="none" stroke="#2A1F0E" stroke-width="6.5" stroke-linecap="round"/>
  <path d="M33 62.5 Q50 80 67 62.5" fill="none" stroke="#FFFFFF" stroke-opacity=".35" stroke-width="2" stroke-linecap="round"/>

  <ellipse cx="32" cy="27" rx="15" ry="9" fill="url(#gloss)" transform="rotate(-18 32 27)"/>
</svg>
